<?xml version="1.0" encoding="UTF-8"?>
<!DOCTYPE svg PUBLIC "-//W3C//DTD SVG 1.1//EN" "http://www.w3.org/Graphics/SVG/1.1/DTD/svg11.dtd">
<!-- Creator: CorelDRAW 2018 -->
<svg xmlns="http://www.w3.org/2000/svg" xml:space="preserve" width="51.462mm" height="9mm" version="1.1" style="shape-rendering:geometricPrecision; text-rendering:geometricPrecision; image-rendering:optimizeQuality; fill-rule:evenodd; clip-rule:evenodd"
viewBox="0 0 5146.2 1263.4"
 xmlns:xlink="http://www.w3.org/1999/xlink">
 <defs>
  <style type="text/css">
   <![CDATA[
    .fil0 {fill:black}
    .fil1 {fill:black;fill-rule:nonzero}
    .fil2 {fill:black}
    .fil3 {fill:black}
   ]]>
  </style>
   <clipPath id="id0">
    <rect x="-106858.57" y="-34504.97" width="67733.34" height="38100"/>
   </clipPath>
 </defs>
 <g id="Layer_x0020_1">
  <metadata id="CorelCorpID_0Corel-Layer"/>
  <g style="clip-path:url(#id0)">
   <image x="-106858.57" y="-34504.97" width="67733.34" height="38100" xlink:href="qwe_Images\qwe_ImgID1.png"/>
  </g>
  <g id="_1510639592">
   <g>
    <path class="fil0" d="M3374.28 895.64c21.25,-0.5 43.01,-0.88 65.28,-1.13 22.26,-0.26 45.8,-2.03 70.59,-5.32 24.8,-3.28 55.41,-28.33 91.85,-75.14 36.43,-46.81 63.25,-95.01 80.46,-144.6l12.14 0 0 241.38 -596.61 0 0 -12.15c6.58,0 14.17,-0.38 22.77,-1.14 8.6,-0.76 18.34,-1.77 29.22,-3.03 10.88,-1.27 19.23,-5.06 25.05,-11.39 5.82,-6.33 9.49,-17.59 11.01,-33.78l1.52 -34.91 0 -262.86c19.02,-24.21 36.5,-49.86 51.34,-76.18 -14.75,14.91 -32.31,29.43 -51.34,42.93l0 -23.97c45.36,-36.24 80.63,-79.12 104.21,-136.87l387.65 0 0 224.67 -12.15 0c-25.8,-56.67 -57.18,-104.36 -94.12,-143.07 -36.94,-38.72 -67.93,-59.34 -92.98,-61.87 -25.05,-2.53 -46.18,-4.05 -63.38,-4.55 -17.21,-0.51 -28.59,-0.76 -34.16,-0.76l-6.83 0 -1.52 248.97 31.88 -1.52c29.35,-3.03 51.49,-16.82 66.42,-41.37 14.93,-24.54 22.39,-53.51 22.39,-86.91l14.42 0 0 276.3 -14.42 0c0,-33.91 -7.46,-63.51 -22.39,-88.81 -14.93,-25.31 -37.07,-39.47 -66.42,-42.51l-31.88 -1.52 0 261.11z"/>
    <path class="fil1" d="M532.7 746.06c0,50.09 -21.12,91.21 -63.5,123.34 -42.25,32.13 -88.3,48.2 -138.02,48.2 -43.52,0 -86.66,-13.79 -129.16,-41.37 -42.64,-27.58 -67.18,-41.37 -73.76,-41.37 -16.82,0 -27.2,6.33 -31.24,18.98 -4.05,12.65 -7.85,33.9 -11.39,63.76l-12.9 0 0 -271.74 12.9 0c3.04,10.63 8.22,28.09 15.56,52.38 7.34,24.29 21,53.26 40.99,86.91 19.99,33.65 46.3,61.6 78.94,83.87 32.64,22.27 70.46,33.4 113.48,33.4 24.79,0 45.03,-6.58 60.72,-19.74 15.69,-13.15 23.53,-28.84 23.53,-47.06 0,-21.76 -5.82,-38.96 -17.46,-51.61 -11.64,-12.65 -32.64,-24.92 -63,-36.82 -30.36,-11.89 -62.49,-24.66 -96.4,-38.33 -33.9,-13.66 -69.83,-32.13 -107.78,-55.41 -37.95,-22.77 -56.93,-65.78 -56.93,-129.03 0,-49.59 19.99,-91.6 59.97,-126 39.97,-34.41 86.02,-51.62 138.14,-51.62 28.84,0 56.93,6.83 84.25,20.49l78.94 44.03c14.68,0 24.29,-6.2 28.85,-18.6 4.55,-12.4 6.83,-27.7 6.83,-45.92l14.42 0 0 201.15 -13.66 0c-2.53,-8.61 -7.72,-23.28 -15.56,-44.03 -7.85,-20.75 -22.9,-44.02 -45.42,-69.83 -22.39,-25.81 -44.66,-44.4 -66.54,-55.79 -22.01,-11.39 -48.33,-17.08 -79.19,-17.08 -20.62,0 -39.85,6.07 -57.56,18.22 -17.59,12.14 -26.44,27.32 -26.44,45.54 0,19.23 6.7,35.3 20.11,48.2 13.41,12.9 28.84,23.15 46.3,30.74 17.46,7.59 41.62,17.21 72.49,28.85 30.87,11.63 62.87,25.17 96.02,40.6 33.14,15.44 60.34,37.96 81.6,67.56 21.25,29.6 31.87,64.64 31.87,105.13z"/>
    <path class="fil1" d="M1027.84 633.72l-169.27 0 0 179.89 1.52 34.92c0,16.69 2.91,27.95 8.73,33.77 5.82,5.82 16.83,9.74 33.02,11.77l27.33 2.28 0 12.14 -338.54 0 0 -12.14 37.96 -3.04c14.67,-2.02 24.92,-6.33 30.74,-12.9 5.82,-6.58 9.48,-17.72 11,-33.4l1.52 -34.92 0 -360.54 -1.52 -34.92c-1.52,-16.19 -4.93,-27.45 -10.24,-33.78 -5.32,-6.32 -15.82,-10.5 -31.5,-12.52l-39.47 -3.04 0 -12.14 340.05 0 0 12.14 -27.33 2.28c-16.19,1.52 -27.2,5.44 -33.02,11.77 -5.82,6.32 -8.73,17.58 -8.73,33.77l-1.52 34.92 0 166.99 169.27 0 0 -166.99 -1.52 -34.92c-1.52,-16.69 -4.93,-27.95 -10.24,-33.77 -5.32,-5.82 -15.82,-9.74 -31.5,-11.77l-27.33 -2.28 0 -12.14 340.05 0 0 12.14 -39.47 3.04c-14.68,2.02 -24.92,6.33 -30.74,12.9 -5.82,6.58 -9.49,17.72 -11.01,33.4l-1.52 34.92 0 360.54 1.52 34.92c1.52,16.19 4.94,27.45 10.25,33.78 5.31,6.32 15.81,10.5 31.5,12.52l37.95 3.04 0 12.14 -338.53 0 0 -12.14 27.33 -2.28c16.19,-2.03 26.81,-5.82 31.87,-11.39 5.07,-5.56 8.35,-16.95 9.87,-34.15l1.52 -34.92 0 -179.89z"/>
    <path class="fil1" d="M1576.21 719.49l-66.79 -186.72 -64.52 186.72 131.31 0zm-136.62 15.94l-23.53 78.94c-5.07,18.22 -7.6,32.64 -7.6,43.26 0,11.64 2.91,19.74 8.73,24.29 5.82,4.56 13.29,7.72 22.4,9.49 9.1,1.77 17.96,2.91 26.56,3.42 8.6,0.5 16.95,1.01 25.05,1.52l0 12.14 -214.81 0 0 -12.14 45.04 -3.04c16.82,-2.02 29.47,-6.2 38.2,-12.52 8.61,-6.33 15.18,-14.3 19.49,-23.91 4.3,-9.62 9.1,-21 14.42,-34.16 5.44,-13.16 9.86,-25.05 13.41,-35.68l144.97 -434.17 83.5 0 160.16 434.17 23.53 59.21c7.08,15.69 14.29,26.94 21.63,33.78 7.34,6.83 17.58,11.26 30.74,13.28l31.12 3.04 0 12.14 -360.54 0 0 -12.14c6.07,0 11.51,-0.13 16.32,-0.38 4.8,-0.26 13.53,-1.4 26.18,-3.42 12.65,-2.02 21.76,-4.68 27.33,-7.97 5.56,-3.29 8.35,-10.25 8.35,-20.87 0,-11.14 -3.55,-27.08 -10.63,-47.82l-27.33 -80.46 -142.69 0z"/>
    <path class="fil0" d="M2706.71 437.93l0 -155.14 -2.17 -67.01c-2.18,-32.05 -7.07,-53.66 -14.68,-64.83 -7.61,-11.17 -22.65,-18.69 -45.12,-22.58l-39.15 -4.37 0 -23.31 487.14 0 0 23.31 -56.54 5.83c-21.02,3.88 -35.7,12.14 -44.04,24.76 -8.34,12.63 -13.59,33.99 -15.77,64.1l-2.17 67.01 0 103.01c-45.44,15.1 -89.16,28.45 -124.23,37.35 0.11,-0.23 0.17,-0.45 0.17,-0.67 -0.06,-0.67 -2.08,0.22 -5.49,2.01 -22.11,5.49 -40.47,9.07 -53.17,9.96 -1.34,-12.42 49.48,-42.87 49.14,-47.85 -0.11,-2.12 -96.04,31.34 -108.46,36.61 -8.97,3.81 -17.42,7.75 -25.46,11.81zm267.5 284.74l0 255.02 2.17 67.01c2.18,31.08 7.07,52.68 14.68,64.83 7.61,12.14 22.65,20.15 45.13,24.03l54.37 5.83 0 23.31 -484.97 0 0 -23.31 39.15 -4.37c23.19,-3.89 38.42,-11.17 45.66,-21.85 7.25,-10.68 11.96,-32.54 14.14,-65.56l2.17 -67.01c0,-39.65 0,-99.7 0,-172.63l0 -40.08c40.28,-6.32 83.08,-10.46 116.96,-13.75 52.74,-7.99 99.26,-17.22 150.54,-31.47zm-159.27 -266.16c0.62,-0.62 1.29,-1.18 1.91,-1.74l-1.91 1.74z"/>
    <path class="fil0" d="M2224.44 770.14l0 37.83c0,188.11 -2.81,85.9 2.18,239.64 0,32.05 4.17,53.66 12.5,64.83 8.34,11.17 24.11,18.69 47.3,22.58l39.15 4.37 0 23.31 -484.97 0 0 -23.31 54.37 -5.83c21.02,-3.88 35.7,-12.14 44.04,-24.76 8.33,-12.63 13.59,-33.99 15.77,-64.1l2.17 -67.01 0 -251.3c45.98,12.18 88.83,20.47 136.84,27.75 37.75,3.66 86.59,8.39 130.65,16zm-267.49 -376.91l0 -107.53 -2.17 -67.01c-2.18,-31.08 -7.07,-52.69 -14.68,-64.83 -7.61,-12.14 -22.66,-20.15 -45.13,-24.03l-56.54 -5.83 0 -23.31 487.14 0 0 23.31 -39.15 4.37c-23.19,2.91 -38.96,10.44 -47.3,22.58 -8.33,12.14 -12.5,33.75 -12.5,64.83l-2.18 67.01 0 162.4c-11.92,-6.65 -24.92,-13.03 -39.15,-19.07 -12.42,-5.27 -108.35,-38.73 -108.46,-36.61 -0.34,4.98 50.48,35.43 49.13,47.85 -12.7,-0.89 -31.06,-4.47 -53.17,-9.96 -3.41,-1.79 -5.42,-2.68 -5.48,-2.01 0,0.22 0.06,0.44 0.17,0.67 -31.53,-8 -70.06,-19.6 -110.53,-32.83zm145.57 63.28c-0.62,-0.62 -1.29,-1.18 -1.91,-1.74l1.91 1.74z"/>
    <path class="fil1" d="M4031.01 893.31c21.26,-0.51 43.02,-0.89 65.28,-1.14 22.27,-0.25 45.8,-2.02 70.59,-5.31 24.8,-3.29 55.41,-28.34 91.85,-75.15 36.43,-46.81 63.25,-95 80.45,-144.59l12.15 0 0 241.37 -596.61 0 0 -12.14c6.58,0 14.17,-0.38 22.78,-1.14 8.6,-0.76 18.34,-1.77 29.22,-3.04 10.88,-1.26 19.23,-5.06 25.05,-11.38 5.82,-6.33 9.48,-17.59 11,-33.78l1.52 -34.92 0 -359.78 -1.52 -34.92c-1.52,-16.19 -5.31,-27.58 -11.38,-34.16 -6.08,-6.57 -14.55,-10.62 -25.43,-12.14 -10.88,-1.52 -20.75,-2.4 -29.6,-2.66 -8.86,-0.25 -16.83,-0.63 -23.91,-1.14l0 -12.14 583.7 0 0 224.68 -12.15 0c-25.8,-56.68 -57.18,-104.37 -94.12,-143.08 -36.94,-38.71 -67.93,-59.33 -92.98,-61.87 -25.05,-2.53 -46.17,-4.04 -63.38,-4.55 -17.2,-0.51 -28.59,-0.76 -34.16,-0.76l-6.83 0 -1.52 248.97 31.88 -1.52c29.35,-3.04 51.49,-16.83 66.42,-41.37 14.93,-24.54 22.39,-53.51 22.39,-86.91l14.42 0 0 276.29 -14.42 0c0,-33.9 -7.46,-63.5 -22.39,-88.81 -14.93,-25.3 -37.07,-39.47 -66.42,-42.5l-31.88 -1.52 0 261.11z"/>
    <path class="fil1" d="M5073.47 367.29c-6.58,0.51 -13.79,1.02 -21.63,1.52 -7.85,0.51 -18.85,1.9 -33.02,4.18 -14.17,2.27 -24.92,8.09 -32.26,17.46 -7.34,9.36 -11.77,22.13 -13.28,38.33l-1.52 36.43 0 443.28 -92.6 0 -360.55 -461.5 -3.03 0 0 354.48 1.51 36.43c1.52,16.7 5.7,29.1 12.53,37.19 6.83,8.1 17.2,13.29 31.12,15.56 13.91,2.28 25.81,3.67 35.67,4.18 9.87,0.5 16.58,1.01 20.12,1.52l0 12.14 -219.36 0 0 -12.14c6.7,-0.51 14.04,-1.02 22.26,-1.52 8.1,-0.51 22.52,-2.41 43.14,-5.7 20.62,-3.28 32.51,-20.36 35.55,-51.23l1.52 -36.43 0 -345.37 -1.52 -34.91c-6.58,-10.63 -14.55,-20.5 -23.66,-29.61 -9.23,-9.1 -19.23,-15.43 -30.23,-18.97 -11.01,-3.54 -21.51,-5.32 -31.76,-5.32l-22.9 0 0 -12.14 290.34 0 272.87 349.16 3.04 0 0 -242.14 -1.52 -36.43c-1.52,-16.19 -5.69,-28.46 -12.52,-36.81 -6.83,-8.35 -17.08,-13.67 -30.74,-15.94 -13.67,-2.28 -24.67,-3.67 -33.02,-4.18 -8.35,-0.5 -16.07,-1.01 -23.15,-1.52l0 -12.14 218.6 0 0 12.14z"/>
    <path class="fil2" d="M2974.88 516.86l1.93 1.41c-0.13,-0.09 -2.58,-0.93 -1.93,-1.41z"/>
    <path class="fil2" d="M2554.77 772.13c0.17,-0.45 0.33,-0.9 0.52,-1.34 -0.19,0.45 -0.36,0.89 -0.52,1.34z"/>
    <path class="fil2" d="M2554.66 773.53c-0.01,-0.35 -0.04,-0.71 -0.03,-1.06l0.08 -0.21 -0.82 -0.57 0 0.01 0.77 1.83z"/>
    <polygon class="fil2" points="2561.85,790.76 2561.82,790.72 2561.83,790.75 "/>
    <path class="fil2" d="M2625.08 882.07c9.35,-3.99 20.44,-5.94 32.48,-5.93 -12.46,-0.19 -23.38,1.66 -32.48,5.93z"/>
    <path class="fil2" d="M2949.02 602.07l1.93 1.41c-0.13,-0.1 -2.57,-0.95 -1.93,-1.41z"/>
    <path class="fil2" d="M1942.12 516.86l-1.93 1.41c0.13,-0.09 2.58,-0.93 1.93,-1.41z"/>
    <path class="fil2" d="M2362.24 772.13c-0.17,-0.45 -0.34,-0.9 -0.52,-1.34 0.18,0.45 0.35,0.89 0.52,1.34z"/>
    <path class="fil2" d="M2362.35 773.53c0.01,-0.35 0.03,-0.71 0.02,-1.06l-0.08 -0.21 0.83 -0.57 -0.01 0.01 -0.76 1.83z"/>
    <polygon class="fil2" points="2355.15,790.76 2355.18,790.72 2355.17,790.75 "/>
    <path class="fil2" d="M2291.92 882.07c-9.35,-3.99 -20.44,-5.94 -32.48,-5.93 12.47,-0.19 23.38,1.66 32.48,5.93z"/>
    <path class="fil2" d="M1967.99 602.07l-1.93 1.41c0.13,-0.1 2.57,-0.95 1.93,-1.41z"/>
   </g>
   <path class="fil3" d="M1647.74 304.77c41.42,68.52 175.69,138.21 216.09,139.91 -28.05,-15.95 -37.41,-22.02 -57.64,-49.1 34.79,21.93 74.9,28.42 118.63,42.84 90.14,29.73 188.79,58.23 227.87,60.83 1.2,-10.24 -44.18,-35.42 -43.92,-39.52 0.11,-1.78 17.82,9.2 37.26,14.37 22.5,6.67 39.27,7.87 59.58,15.86 145.56,57.24 149.31,149.68 158.4,215 0.93,0.29 5.86,-10.97 5.51,-23.83 2.49,3.14 3.3,7.85 3.78,11.22 2.32,16.38 4.97,32.47 10.04,48l73.87 73.16 1.29 0 0.46 0 1.28 0 73.88 -73.16c5.06,-15.53 7.71,-31.62 10.04,-48 0.48,-3.37 1.28,-8.08 3.78,-11.22 -0.35,12.86 4.58,24.12 5.5,23.83 9.1,-65.32 12.84,-157.76 158.4,-215 20.32,-7.99 37.09,-9.19 59.59,-15.86 19.44,-5.17 37.14,-16.15 37.25,-14.37 0.26,4.1 -45.11,29.28 -43.92,39.52 39.09,-2.6 137.73,-31.1 227.88,-60.83 43.73,-14.42 83.83,-20.91 118.62,-42.84 -20.22,27.08 -29.59,33.15 -57.64,49.1 40.41,-1.7 174.68,-71.39 216.09,-139.91 -5.59,72.43 -104.12,135.82 -178.22,170.98 -29.92,14.21 -77.96,31.46 -103.68,41.11 148.29,-25.29 206.7,-68.52 257.23,-105.7 -47.7,70.43 -177.63,153.52 -258.55,187.03 53.42,-3.26 125.52,-21.21 176.56,-50.67 -29.49,53.39 -157.15,117.22 -242.31,137.98 -47.05,11.47 -89.72,18.91 -138.09,25.34 -41.25,3.52 -96.88,8.25 -142.42,16.67 -18.07,2.84 -34.87,6.61 -48.86,12.25 -97.66,34.72 50.83,109.07 92.62,139.28 -47.76,-8.98 -80.29,1.81 -88.08,46.21 -84.42,-43.71 -112.45,-44.08 -133.38,7.84l0 1.16c-1.21,3.06 -2.4,6.29 -3.57,9.72l-0.23 -0.66 -0.23 0.66c-1.18,-3.43 -2.36,-6.66 -3.58,-9.72l0 -1.16c-20.92,-51.92 -48.95,-51.55 -133.37,-7.84 -7.8,-44.4 -40.32,-55.19 -88.09,-46.21 41.8,-30.21 190.29,-104.56 92.63,-139.28 -13.99,-5.64 -30.79,-9.41 -48.87,-12.25 -45.53,-8.42 -101.16,-13.15 -142.41,-16.67 -48.37,-6.43 -91.04,-13.87 -138.1,-25.34 -85.15,-20.76 -212.81,-84.59 -242.31,-137.98 51.05,29.46 123.15,47.41 176.57,50.67 -80.93,-33.51 -210.85,-116.6 -258.56,-187.03 50.54,37.18 108.95,80.41 257.24,105.7 -25.72,-9.65 -73.76,-26.9 -103.68,-41.11 -74.1,-35.16 -172.63,-98.55 -178.23,-170.98z"/>
  </g>
 </g>
</svg>
